<svg width="989" height="491" viewBox="0 0 989 491" fill="none" xmlns="http://www.w3.org/2000/svg">
<g opacity="0.29827">
<path d="M1008.08 158.448L443.182 -361.858V-752.19L28.1096 -775C24.9043 -767.456 4.36709 -745.714 7.57176 -733.596C11.43 -719.102 30.8387 -723.735 36.4776 -714.409C43.0661 -703.42 31.7291 -658.749 28.3457 -645.86C21.8759 -621.445 7.09676 -601.665 2.82235 -577.25C-4.35982 -536.263 10.1824 -539.53 37.7242 -513.927C84.141 -470.742 46.9244 -425.952 58.6176 -375.223C68.1146 -333.878 109.605 -312.554 124.8 -271.211C136.553 -239.37 152.697 -231.233 177.746 -207.947C177.153 -222.084 164.51 -263.785 188.253 -260.102C211.817 -256.478 202.736 -221.669 207.247 -207.115C211.045 -194.997 237.933 -170.761 215.616 -159.593C208.196 -155.91 187.066 -170.582 178.577 -174.503C184.572 -155.791 180.774 -136.367 190.271 -118.487C201.608 -97.162 213.835 -105.359 228.853 -93.7754C244.344 -81.8355 242.683 -68.1137 235.797 -50.0554C228.615 -31.2247 221.196 -34.1352 232.592 -11.4434C240.843 4.95119 254.85 25.7421 266.9 38.2164C273.904 45.4634 281.502 47.1267 288.506 56.3932C294.323 64.1155 292.067 74.2142 299.012 81.1638C310.883 93.1037 331.006 93.282 340.384 108.904C350.831 126.309 338.96 139.437 369.706 137.833C371.309 172.643 377.897 204.185 377.541 238.994C394.695 245.825 422.414 237.687 440.399 234.063C458.266 258.18 481.355 241.429 501.774 254.558C510.678 260.26 508.837 274.517 514.239 279.506C525.339 289.723 533.529 283.308 547.301 286.872C557.51 289.486 565.404 296.97 575.138 299.703C584.338 302.257 599.475 296.258 606.301 304.396C614.492 314.138 600.78 331.958 613.127 339.799C623.395 346.333 638.115 330.77 648.088 333.027C659.721 335.7 693.079 366.174 701.271 376.212C710.59 387.677 719.969 409.062 725.25 423.793C733.501 446.841 732.373 458.127 749.408 474.998C760.27 485.75 749.942 486.522 767.63 489.67C779.204 491.749 794.518 483.374 806.212 482.067C830.549 479.394 855.122 484.027 879.102 479.453C901.421 475.176 922.729 468.166 945.64 464.899C965.465 462.048 1000.37 464.246 1017.94 454.801C1036.99 444.643 1038.71 421.654 1011.17 425.932C1008.97 411.26 1018.77 391.003 1007.85 380.847C1023.04 360.056 1028.56 345.384 1030.93 319.959C1032 308.792 1032.48 296.436 1038 287.05C1043.4 277.783 1058.59 272.259 1061.56 264.299C1066.13 251.943 1058.83 246.419 1053.25 239.528C1049.69 235.073 1039.54 237.212 1036.63 233.291C1031.23 226.103 1036.57 218.678 1033.6 211.431C1024.94 190.462 1014.61 182.205 1008.08 158.444C1008.26 162.424 1008.44 166.463 1008.2 170.384" stroke="white" stroke-width="2" stroke-linecap="round" stroke-linejoin="round"/>
</g>
<path d="M729.114 78.9394C720.546 102.321 740.614 110.526 756.675 125.807C761.434 130.336 761.888 137.817 756.879 142.342C746.107 152.074 705.264 137.917 707.854 150.745C710.53 163.994 745.061 182.531 746.618 183.799C760.284 194.932 764.735 223.174 757.208 238.658C751.852 249.676 716.342 245.962 705.172 242.293C632.024 218.266 664.985 221.131 582.817 213.67C576.527 213.099 569.935 212.806 563.894 214.65C557.671 216.549 557.869 224.339 559.957 228.55C566.876 242.506 597.849 266.178 589.514 284.523C586.956 290.152 580.963 293.707 578.264 299.27C576.151 303.627 576.385 308.772 575.445 313.523" stroke="white" stroke-width="2"/>
<path fill-rule="evenodd" clip-rule="evenodd" d="M573.5 321C577.09 321 580 318.09 580 314.5C580 310.91 577.09 308 573.5 308C569.91 308 567 310.91 567 314.5C567 318.09 569.91 321 573.5 321Z" fill="#4AF6CD"/>
<path fill-rule="evenodd" clip-rule="evenodd" d="M661 358C662.657 358 664 356.657 664 355C664 353.343 662.657 352 661 352C659.343 352 658 353.343 658 355C658 356.657 659.343 358 661 358Z" fill="#4AF6CD"/>
<path fill-rule="evenodd" clip-rule="evenodd" d="M725 466C726.657 466 728 464.657 728 463C728 461.343 726.657 460 725 460C723.343 460 722 461.343 722 463C722 464.657 723.343 466 725 466Z" fill="#4AF6CD"/>
<path fill-rule="evenodd" clip-rule="evenodd" d="M365 223C366.657 223 368 221.657 368 220C368 218.343 366.657 217 365 217C363.343 217 362 218.343 362 220C362 221.657 363.343 223 365 223Z" fill="#4AF6CD"/>
<path fill-rule="evenodd" clip-rule="evenodd" d="M729.5 86C733.09 86 736 83.0899 736 79.5C736 75.9101 733.09 73 729.5 73C725.91 73 723 75.9101 723 79.5C723 83.0899 725.91 86 729.5 86Z" fill="#4AF6CD"/>
<path d="M398.41 305.976L396.17 317H394.218L392.186 307.768L390.138 317H388.234L385.994 305.976H387.482L389.258 315.672L391.386 305.976H393.002L395.178 315.672L397.018 305.976H398.41ZM406.544 312.536C406.544 312.781 406.534 313.032 406.512 313.288H401.136C401.2 314.216 401.435 314.899 401.84 315.336C402.246 315.773 402.768 315.992 403.408 315.992C403.814 315.992 404.187 315.933 404.528 315.816C404.87 315.699 405.227 315.512 405.6 315.256L406.24 316.136C405.344 316.84 404.363 317.192 403.296 317.192C402.123 317.192 401.206 316.808 400.544 316.04C399.894 315.272 399.568 314.216 399.568 312.872C399.568 311.997 399.707 311.224 399.984 310.552C400.272 309.869 400.678 309.336 401.2 308.952C401.734 308.568 402.358 308.376 403.072 308.376C404.192 308.376 405.051 308.744 405.648 309.48C406.246 310.216 406.544 311.235 406.544 312.536ZM405.088 312.104C405.088 311.272 404.923 310.637 404.592 310.2C404.262 309.763 403.766 309.544 403.104 309.544C401.899 309.544 401.243 310.429 401.136 312.2H405.088V312.104ZM411.183 308.376C411.759 308.376 412.276 308.456 412.735 308.616C413.194 308.776 413.631 309.016 414.047 309.336L413.423 310.264C413.039 310.019 412.671 309.837 412.319 309.72C411.978 309.603 411.615 309.544 411.231 309.544C410.751 309.544 410.372 309.645 410.095 309.848C409.818 310.04 409.679 310.307 409.679 310.648C409.679 310.989 409.807 311.256 410.063 311.448C410.33 311.64 410.804 311.827 411.487 312.008C412.426 312.243 413.124 312.563 413.583 312.968C414.052 313.373 414.287 313.928 414.287 314.632C414.287 315.464 413.962 316.099 413.311 316.536C412.671 316.973 411.887 317.192 410.959 317.192C409.679 317.192 408.618 316.824 407.775 316.088L408.559 315.192C409.274 315.736 410.063 316.008 410.927 316.008C411.482 316.008 411.919 315.896 412.239 315.672C412.57 315.437 412.735 315.123 412.735 314.728C412.735 314.44 412.676 314.211 412.559 314.04C412.442 313.859 412.239 313.704 411.951 313.576C411.663 313.437 411.242 313.293 410.687 313.144C409.791 312.909 409.14 312.595 408.735 312.2C408.34 311.805 408.143 311.304 408.143 310.696C408.143 310.259 408.271 309.864 408.527 309.512C408.794 309.149 409.156 308.872 409.615 308.68C410.084 308.477 410.607 308.376 411.183 308.376ZM420.62 316.616C420.065 317 419.436 317.192 418.732 317.192C418.017 317.192 417.457 316.989 417.052 316.584C416.657 316.168 416.46 315.571 416.46 314.792V309.704H414.988V308.568H416.46V306.664L417.932 306.488V308.568H419.932L419.772 309.704H417.932V314.728C417.932 315.165 418.006 315.485 418.156 315.688C418.316 315.88 418.577 315.976 418.94 315.976C419.27 315.976 419.644 315.864 420.06 315.64L420.62 316.616ZM429.179 305.784C429.915 305.784 430.545 305.891 431.067 306.104C431.59 306.307 432.097 306.627 432.587 307.064L431.755 307.992C431.339 307.661 430.929 307.421 430.523 307.272C430.129 307.112 429.702 307.032 429.243 307.032C428.667 307.032 428.193 307.165 427.819 307.432C427.446 307.699 427.259 308.088 427.259 308.6C427.259 308.92 427.323 309.192 427.451 309.416C427.579 309.629 427.814 309.827 428.155 310.008C428.507 310.189 429.014 310.381 429.675 310.584C430.369 310.797 430.945 311.027 431.403 311.272C431.862 311.517 432.23 311.859 432.507 312.296C432.795 312.723 432.939 313.267 432.939 313.928C432.939 314.568 432.779 315.133 432.459 315.624C432.15 316.115 431.697 316.499 431.099 316.776C430.513 317.053 429.814 317.192 429.003 317.192C427.478 317.192 426.23 316.717 425.259 315.768L426.091 314.84C426.539 315.203 426.993 315.48 427.451 315.672C427.91 315.853 428.422 315.944 428.987 315.944C429.67 315.944 430.235 315.779 430.683 315.448C431.131 315.107 431.355 314.616 431.355 313.976C431.355 313.613 431.286 313.315 431.147 313.08C431.009 312.835 430.769 312.616 430.427 312.424C430.097 312.232 429.611 312.04 428.971 311.848C427.841 311.507 427.014 311.096 426.491 310.616C425.969 310.136 425.707 309.485 425.707 308.664C425.707 308.109 425.851 307.613 426.139 307.176C426.438 306.739 426.849 306.397 427.371 306.152C427.905 305.907 428.507 305.784 429.179 305.784ZM439.066 308.376C439.834 308.376 440.431 308.605 440.858 309.064C441.295 309.523 441.514 310.152 441.514 310.952V317H440.042V311.16C440.042 310.563 439.925 310.141 439.69 309.896C439.466 309.651 439.135 309.528 438.698 309.528C438.261 309.528 437.871 309.656 437.53 309.912C437.189 310.168 436.869 310.531 436.57 311V317H435.098V305.192L436.57 305.032V309.736C437.231 308.829 438.063 308.376 439.066 308.376ZM447.641 308.376C448.825 308.376 449.742 308.771 450.393 309.56C451.054 310.349 451.385 311.421 451.385 312.776C451.385 313.651 451.236 314.424 450.937 315.096C450.638 315.757 450.206 316.275 449.641 316.648C449.076 317.011 448.404 317.192 447.625 317.192C446.441 317.192 445.518 316.797 444.857 316.008C444.196 315.219 443.865 314.147 443.865 312.792C443.865 311.917 444.014 311.149 444.313 310.488C444.612 309.816 445.044 309.299 445.609 308.936C446.174 308.563 446.852 308.376 447.641 308.376ZM447.641 309.56C446.18 309.56 445.449 310.637 445.449 312.792C445.449 314.936 446.174 316.008 447.625 316.008C449.076 316.008 449.801 314.931 449.801 312.776C449.801 310.632 449.081 309.56 447.641 309.56ZM457.481 308.376C457.78 308.376 458.057 308.408 458.313 308.472L458.041 309.912C457.785 309.848 457.54 309.816 457.305 309.816C456.782 309.816 456.361 310.008 456.041 310.392C455.721 310.776 455.47 311.373 455.289 312.184V317H453.817V308.568H455.081L455.225 310.28C455.449 309.651 455.753 309.176 456.137 308.856C456.521 308.536 456.969 308.376 457.481 308.376ZM465.872 312.536C465.872 312.781 465.862 313.032 465.84 313.288H460.464C460.528 314.216 460.763 314.899 461.168 315.336C461.574 315.773 462.096 315.992 462.736 315.992C463.142 315.992 463.515 315.933 463.856 315.816C464.198 315.699 464.555 315.512 464.928 315.256L465.568 316.136C464.672 316.84 463.691 317.192 462.624 317.192C461.451 317.192 460.534 316.808 459.872 316.04C459.222 315.272 458.896 314.216 458.896 312.872C458.896 311.997 459.035 311.224 459.312 310.552C459.6 309.869 460.006 309.336 460.528 308.952C461.062 308.568 461.686 308.376 462.4 308.376C463.52 308.376 464.379 308.744 464.976 309.48C465.574 310.216 465.872 311.235 465.872 312.536ZM464.416 312.104C464.416 311.272 464.251 310.637 463.92 310.2C463.59 309.763 463.094 309.544 462.432 309.544C461.227 309.544 460.571 310.429 460.464 312.2H464.416V312.104ZM474.41 304.184V318.568H474.058V304.184H474.41ZM493.237 317H491.765L491.381 312.024C491.221 310.072 491.131 308.573 491.109 307.528L488.725 315.752H487.301L484.789 307.512C484.789 308.845 484.72 310.387 484.581 312.136L484.213 317H482.773L483.685 305.976H485.733L488.053 313.992L490.261 305.976H492.325L493.237 317ZM501.434 315.032C501.434 315.373 501.493 315.629 501.61 315.8C501.728 315.96 501.904 316.083 502.138 316.168L501.802 317.192C501.365 317.139 501.013 317.016 500.746 316.824C500.48 316.632 500.282 316.333 500.154 315.928C499.589 316.771 498.752 317.192 497.642 317.192C496.81 317.192 496.154 316.957 495.674 316.488C495.194 316.019 494.954 315.405 494.954 314.648C494.954 313.752 495.274 313.064 495.914 312.584C496.565 312.104 497.482 311.864 498.666 311.864H499.962V311.24C499.962 310.643 499.818 310.216 499.53 309.96C499.242 309.704 498.8 309.576 498.202 309.576C497.584 309.576 496.826 309.725 495.93 310.024L495.562 308.952C496.608 308.568 497.578 308.376 498.474 308.376C499.466 308.376 500.208 308.621 500.698 309.112C501.189 309.592 501.434 310.28 501.434 311.176V315.032ZM497.978 316.088C498.821 316.088 499.482 315.651 499.962 314.776V312.84H498.858C497.301 312.84 496.522 313.416 496.522 314.568C496.522 315.069 496.645 315.448 496.89 315.704C497.136 315.96 497.498 316.088 497.978 316.088ZM505.981 317.192C505.437 317.192 505.005 317.032 504.685 316.712C504.376 316.381 504.221 315.923 504.221 315.336V305.176L505.693 305V315.304C505.693 315.539 505.731 315.709 505.805 315.816C505.891 315.923 506.029 315.976 506.221 315.976C506.424 315.976 506.605 315.944 506.765 315.88L507.149 316.904C506.797 317.096 506.408 317.192 505.981 317.192ZM510.461 308.568V317H508.989V308.568H510.461ZM509.709 304.52C510.018 304.52 510.269 304.616 510.461 304.808C510.653 305 510.749 305.24 510.749 305.528C510.749 305.816 510.653 306.056 510.461 306.248C510.269 306.429 510.018 306.52 509.709 306.52C509.41 306.52 509.165 306.429 508.973 306.248C508.781 306.056 508.685 305.816 508.685 305.528C508.685 305.24 508.781 305 508.973 304.808C509.165 304.616 509.41 304.52 509.709 304.52ZM517.36 308.376C518.32 308.376 519.083 308.765 519.648 309.544C520.214 310.312 520.496 311.389 520.496 312.776C520.496 313.651 520.363 314.424 520.096 315.096C519.83 315.757 519.446 316.275 518.944 316.648C518.443 317.011 517.856 317.192 517.184 317.192C516.299 317.192 515.552 316.819 514.944 316.072L514.8 317H513.504V305.176L514.976 305V309.624C515.584 308.792 516.379 308.376 517.36 308.376ZM516.832 316.024C517.483 316.024 517.99 315.763 518.352 315.24C518.726 314.707 518.912 313.885 518.912 312.776C518.912 311.635 518.742 310.813 518.4 310.312C518.059 309.8 517.574 309.544 516.944 309.544C516.198 309.544 515.542 309.981 514.976 310.856V314.888C515.2 315.24 515.472 315.517 515.792 315.72C516.123 315.923 516.47 316.024 516.832 316.024ZM529.276 317H528.012L527.9 315.688C527.58 316.211 527.212 316.595 526.796 316.84C526.38 317.075 525.874 317.192 525.276 317.192C524.54 317.192 523.964 316.968 523.548 316.52C523.132 316.072 522.924 315.437 522.924 314.616V308.568H524.396V314.456C524.396 315.032 524.498 315.443 524.7 315.688C524.903 315.923 525.234 316.04 525.692 316.04C526.514 316.04 527.218 315.555 527.804 314.584V308.568H529.276V317ZM532.701 314.968C533.021 314.968 533.288 315.075 533.501 315.288C533.714 315.501 533.821 315.763 533.821 316.072C533.821 316.403 533.725 316.781 533.533 317.208L532.461 319.656H531.405L532.045 317C531.906 316.893 531.794 316.76 531.709 316.6C531.634 316.44 531.597 316.264 531.597 316.072C531.597 315.763 531.704 315.501 531.917 315.288C532.13 315.075 532.392 314.968 532.701 314.968ZM544.331 305.784C544.992 305.784 545.547 305.869 545.995 306.04C546.454 306.211 546.918 306.488 547.387 306.872L546.555 307.848C545.883 307.304 545.174 307.032 544.427 307.032C543.51 307.032 542.768 307.384 542.203 308.088C541.648 308.792 541.371 309.923 541.371 311.48C541.371 312.995 541.648 314.115 542.203 314.84C542.758 315.555 543.494 315.912 544.411 315.912C544.88 315.912 545.291 315.832 545.643 315.672C545.995 315.512 546.368 315.288 546.763 315L547.515 315.96C547.174 316.312 546.736 316.605 546.203 316.84C545.67 317.075 545.056 317.192 544.363 317.192C543.467 317.192 542.667 316.973 541.963 316.536C541.27 316.088 540.726 315.437 540.331 314.584C539.947 313.72 539.755 312.685 539.755 311.48C539.755 310.275 539.958 309.245 540.363 308.392C540.768 307.528 541.318 306.877 542.011 306.44C542.704 306.003 543.478 305.784 544.331 305.784ZM555.3 317L554.468 314.232H550.292L549.46 317H547.924L551.46 305.976H553.38L556.9 317H555.3ZM550.66 313H554.1L552.388 307.24L550.66 313Z" fill="white"/>
<path d="M598.378 70.784C599.039 70.784 599.594 70.8693 600.042 71.04C600.501 71.2107 600.965 71.488 601.434 71.872L600.602 72.848C599.93 72.304 599.221 72.032 598.474 72.032C597.557 72.032 596.815 72.384 596.25 73.088C595.695 73.792 595.418 74.9227 595.418 76.48C595.418 77.9947 595.695 79.1147 596.25 79.84C596.805 80.5547 597.541 80.912 598.458 80.912C598.927 80.912 599.338 80.832 599.69 80.672C600.042 80.512 600.415 80.288 600.81 80L601.562 80.96C601.221 81.312 600.783 81.6053 600.25 81.84C599.717 82.0747 599.103 82.192 598.41 82.192C597.514 82.192 596.714 81.9733 596.01 81.536C595.317 81.088 594.773 80.4373 594.378 79.584C593.994 78.72 593.802 77.6853 593.802 76.48C593.802 75.2747 594.005 74.2453 594.41 73.392C594.815 72.528 595.365 71.8773 596.058 71.44C596.751 71.0027 597.525 70.784 598.378 70.784ZM609.401 82H608.137L608.025 80.688C607.705 81.2107 607.337 81.5947 606.921 81.84C606.505 82.0747 605.999 82.192 605.401 82.192C604.665 82.192 604.089 81.968 603.673 81.52C603.257 81.072 603.049 80.4373 603.049 79.616V73.568H604.521V79.456C604.521 80.032 604.623 80.4427 604.825 80.688C605.028 80.9227 605.359 81.04 605.817 81.04C606.639 81.04 607.343 80.5547 607.929 79.584V73.568H609.401V82ZM616.106 73.376C616.405 73.376 616.682 73.408 616.938 73.472L616.666 74.912C616.41 74.848 616.165 74.816 615.93 74.816C615.407 74.816 614.986 75.008 614.666 75.392C614.346 75.776 614.095 76.3733 613.914 77.184V82H612.442V73.568H613.706L613.85 75.28C614.074 74.6507 614.378 74.176 614.762 73.856C615.146 73.536 615.594 73.376 616.106 73.376ZM622.278 73.376C622.576 73.376 622.854 73.408 623.11 73.472L622.838 74.912C622.582 74.848 622.336 74.816 622.102 74.816C621.579 74.816 621.158 75.008 620.838 75.392C620.518 75.776 620.267 76.3733 620.086 77.184V82H618.614V73.568H619.878L620.022 75.28C620.246 74.6507 620.55 74.176 620.934 73.856C621.318 73.536 621.766 73.376 622.278 73.376ZM630.669 77.536C630.669 77.7813 630.659 78.032 630.637 78.288H625.261C625.325 79.216 625.56 79.8987 625.965 80.336C626.371 80.7733 626.893 80.992 627.533 80.992C627.939 80.992 628.312 80.9333 628.653 80.816C628.995 80.6987 629.352 80.512 629.725 80.256L630.365 81.136C629.469 81.84 628.488 82.192 627.421 82.192C626.248 82.192 625.331 81.808 624.669 81.04C624.019 80.272 623.693 79.216 623.693 77.872C623.693 76.9973 623.832 76.224 624.109 75.552C624.397 74.8693 624.803 74.336 625.325 73.952C625.859 73.568 626.483 73.376 627.197 73.376C628.317 73.376 629.176 73.744 629.773 74.48C630.371 75.216 630.669 76.2347 630.669 77.536ZM629.213 77.104C629.213 76.272 629.048 75.6373 628.717 75.2C628.387 74.7627 627.891 74.544 627.229 74.544C626.024 74.544 625.368 75.4293 625.261 77.2H629.213V77.104ZM636.988 73.376C637.756 73.376 638.353 73.6053 638.78 74.064C639.217 74.5227 639.436 75.152 639.436 75.952V82H637.964V76.16C637.964 75.5627 637.852 75.1413 637.628 74.896C637.404 74.6507 637.073 74.528 636.636 74.528C636.188 74.528 635.793 74.656 635.452 74.912C635.111 75.168 634.791 75.536 634.492 76.016V82H633.02V73.568H634.284L634.412 74.816C634.711 74.368 635.079 74.016 635.516 73.76C635.964 73.504 636.455 73.376 636.988 73.376ZM646.651 81.616C646.096 82 645.467 82.192 644.763 82.192C644.048 82.192 643.488 81.9893 643.083 81.584C642.688 81.168 642.491 80.5707 642.491 79.792V74.704H641.019V73.568H642.491V71.664L643.963 71.488V73.568H645.963L645.803 74.704H643.963V79.728C643.963 80.1653 644.038 80.4853 644.187 80.688C644.347 80.88 644.608 80.976 644.971 80.976C645.302 80.976 645.675 80.864 646.091 80.64L646.651 81.616ZM654.011 70.976V80.672H658.539L658.363 82H652.491V70.976H654.011ZM663.141 73.376C664.325 73.376 665.242 73.7707 665.893 74.56C666.554 75.3493 666.885 76.4213 666.885 77.776C666.885 78.6507 666.736 79.424 666.437 80.096C666.138 80.7573 665.706 81.2747 665.141 81.648C664.576 82.0107 663.904 82.192 663.125 82.192C661.941 82.192 661.018 81.7973 660.357 81.008C659.696 80.2187 659.365 79.1467 659.365 77.792C659.365 76.9173 659.514 76.1493 659.813 75.488C660.112 74.816 660.544 74.2987 661.109 73.936C661.674 73.5627 662.352 73.376 663.141 73.376ZM663.141 74.56C661.68 74.56 660.949 75.6373 660.949 77.792C660.949 79.936 661.674 81.008 663.125 81.008C664.576 81.008 665.301 79.9307 665.301 77.776C665.301 75.632 664.581 74.56 663.141 74.56ZM672.389 73.376C672.89 73.376 673.349 73.4507 673.765 73.6C674.181 73.7387 674.581 73.968 674.965 74.288L674.261 75.216C673.962 75.0027 673.669 74.848 673.381 74.752C673.104 74.6453 672.794 74.592 672.453 74.592C671.77 74.592 671.237 74.864 670.853 75.408C670.48 75.952 670.293 76.7573 670.293 77.824C670.293 78.8907 670.48 79.68 670.853 80.192C671.226 80.6933 671.76 80.944 672.453 80.944C672.784 80.944 673.088 80.896 673.365 80.8C673.642 80.6933 673.952 80.528 674.293 80.304L674.965 81.264C674.197 81.8827 673.338 82.192 672.389 82.192C671.248 82.192 670.346 81.808 669.685 81.04C669.034 80.272 668.709 79.2107 668.709 77.856C668.709 76.96 668.858 76.176 669.157 75.504C669.456 74.832 669.877 74.3093 670.421 73.936C670.976 73.5627 671.632 73.376 672.389 73.376ZM682.481 80.032C682.481 80.3733 682.54 80.6293 682.657 80.8C682.775 80.96 682.951 81.0827 683.185 81.168L682.849 82.192C682.412 82.1387 682.06 82.016 681.793 81.824C681.527 81.632 681.329 81.3333 681.201 80.928C680.636 81.7707 679.799 82.192 678.689 82.192C677.857 82.192 677.201 81.9573 676.721 81.488C676.241 81.0187 676.001 80.4053 676.001 79.648C676.001 78.752 676.321 78.064 676.961 77.584C677.612 77.104 678.529 76.864 679.713 76.864H681.009V76.24C681.009 75.6427 680.865 75.216 680.577 74.96C680.289 74.704 679.847 74.576 679.249 74.576C678.631 74.576 677.873 74.7253 676.977 75.024L676.609 73.952C677.655 73.568 678.625 73.376 679.521 73.376C680.513 73.376 681.255 73.6213 681.745 74.112C682.236 74.592 682.481 75.28 682.481 76.176V80.032ZM679.025 81.088C679.868 81.088 680.529 80.6507 681.009 79.776V77.84H679.905C678.348 77.84 677.569 78.416 677.569 79.568C677.569 80.0693 677.692 80.448 677.937 80.704C678.183 80.96 678.545 81.088 679.025 81.088ZM689.76 81.616C689.206 82 688.576 82.192 687.872 82.192C687.158 82.192 686.598 81.9893 686.192 81.584C685.798 81.168 685.6 80.5707 685.6 79.792V74.704H684.128V73.568H685.6V71.664L687.072 71.488V73.568H689.072L688.912 74.704H687.072V79.728C687.072 80.1653 687.147 80.4853 687.296 80.688C687.456 80.88 687.718 80.976 688.08 80.976C688.411 80.976 688.784 80.864 689.2 80.64L689.76 81.616ZM692.758 73.568V82H691.286V73.568H692.758ZM692.006 69.52C692.315 69.52 692.566 69.616 692.758 69.808C692.95 70 693.046 70.24 693.046 70.528C693.046 70.816 692.95 71.056 692.758 71.248C692.566 71.4293 692.315 71.52 692.006 71.52C691.707 71.52 691.462 71.4293 691.27 71.248C691.078 71.056 690.982 70.816 690.982 70.528C690.982 70.24 691.078 70 691.27 69.808C691.462 69.616 691.707 69.52 692.006 69.52ZM698.969 73.376C700.153 73.376 701.071 73.7707 701.721 74.56C702.383 75.3493 702.713 76.4213 702.713 77.776C702.713 78.6507 702.564 79.424 702.265 80.096C701.967 80.7573 701.535 81.2747 700.969 81.648C700.404 82.0107 699.732 82.192 698.953 82.192C697.769 82.192 696.847 81.7973 696.185 81.008C695.524 80.2187 695.193 79.1467 695.193 77.792C695.193 76.9173 695.343 76.1493 695.641 75.488C695.94 74.816 696.372 74.2987 696.937 73.936C697.503 73.5627 698.18 73.376 698.969 73.376ZM698.969 74.56C697.508 74.56 696.777 75.6373 696.777 77.792C696.777 79.936 697.503 81.008 698.953 81.008C700.404 81.008 701.129 79.9307 701.129 77.776C701.129 75.632 700.409 74.56 698.969 74.56ZM709.113 73.376C709.881 73.376 710.478 73.6053 710.905 74.064C711.342 74.5227 711.561 75.152 711.561 75.952V82H710.089V76.16C710.089 75.5627 709.977 75.1413 709.753 74.896C709.529 74.6507 709.198 74.528 708.761 74.528C708.313 74.528 707.918 74.656 707.577 74.912C707.236 75.168 706.916 75.536 706.617 76.016V82H705.145V73.568H706.409L706.537 74.816C706.836 74.368 707.204 74.016 707.641 73.76C708.089 73.504 708.58 73.376 709.113 73.376Z" fill="white"/>
</svg>
