<svg width="13" height="16" viewBox="0 0 13 16" fill="none" xmlns="http://www.w3.org/2000/svg">
<path fill-rule="evenodd" clip-rule="evenodd" d="M6.08053 0.947998C7.45163 0.947998 8.78286 1.43257 9.83247 2.31255V2.31252C11.2036 3.46133 12.01 5.09478 12.1076 6.91084C12.201 8.70383 11.5608 10.4581 10.3518 11.7234L6.34416 15.8631C6.18892 16.0241 5.91967 16.0227 5.76442 15.8616L1.81342 11.7264C0.601701 10.4582 -0.0398816 8.7025 0.0549123 6.91088C0.151067 5.09489 0.958889 3.46143 2.32859 2.31255C3.37683 1.43257 4.70946 0.947998 6.08053 0.947998ZM3.38784 7.26053C3.38784 8.81488 4.59541 10.0788 6.08053 10.0788C7.56563 10.0788 8.7746 8.81492 8.77323 7.26053C8.77323 5.70619 7.56566 4.44227 6.08053 4.44227C4.59544 4.44227 3.38784 5.70615 3.38784 7.26053Z" fill="white"/>
<path d="M6.08051 5.88684C5.3565 5.88684 4.76849 6.50227 4.76849 7.26004C4.76849 8.01782 5.3565 8.63325 6.08051 8.63325C6.80452 8.63325 7.39253 8.01782 7.39253 7.26004C7.39253 6.50227 6.80452 5.88684 6.08051 5.88684Z" fill="white"/>
</svg>
