<svg width="33" height="25" viewBox="0 0 33 25" fill="none" xmlns="http://www.w3.org/2000/svg">
<path d="M26.3578 4.75399C26.4459 4.6742 26.534 4.59608 26.6205 4.51795C26.795 4.36336 26.9646 4.20545 27.1308 4.04919C27.292 3.88296 27.4832 3.77325 27.6511 3.63196C27.824 3.49732 27.9902 3.3577 28.1597 3.23303C28.5105 3.00863 28.8362 2.76094 29.167 2.57145C29.4978 2.38695 29.8053 2.18415 30.1112 2.04618C30.2625 1.96805 30.4071 1.89325 30.545 1.82178C30.688 1.75861 30.8243 1.69711 30.9539 1.64059C31.4742 1.39957 31.9048 1.25329 32.2006 1.14523C32.4982 1.04882 32.6577 0.998956 32.6577 0.998956L32.6727 0.99397C32.7259 0.977347 32.7708 0.934127 32.7891 0.877613C32.819 0.782864 32.7658 0.681468 32.6727 0.651549C32.6727 0.651549 32.4932 0.595034 32.1641 0.535191C31.9995 0.508596 31.7917 0.468702 31.5507 0.45374C31.308 0.433793 31.0254 0.403872 30.7112 0.413847C30.5533 0.415509 30.3855 0.412184 30.2109 0.422158C30.0364 0.437118 29.8535 0.45374 29.664 0.472026C29.2784 0.498622 28.8744 0.58672 28.434 0.676481C28.2096 0.71305 27.9918 0.782864 27.7641 0.852677C27.5347 0.924154 27.2987 0.99729 27.0576 1.07209C26.5955 1.26657 26.0902 1.45939 25.5982 1.722C25.3555 1.85831 25.1062 1.9996 24.8552 2.15086C24.7288 2.22566 24.6025 2.30212 24.4745 2.37858C24.3548 2.46668 24.2335 2.55478 24.1121 2.64288C23.8711 2.82738 23.6251 3.01355 23.3741 3.20305C23.1148 3.38589 22.9087 3.62359 22.671 3.84135C22.4399 4.06741 22.2056 4.29513 21.9696 4.5262C21.7584 4.77719 21.5473 5.03317 21.3396 5.29747C21.1351 5.56343 20.9124 5.82607 20.7229 6.10862C20.5417 6.39619 20.3705 6.69373 20.1926 6.99126C20.0247 7.29545 19.8369 7.58632 19.6873 7.90879C19.541 8.23792 19.4047 8.57369 19.2668 8.91113C19.1288 9.2469 18.9908 9.58598 18.8628 9.92675C18.7747 10.2426 18.685 10.5617 18.5952 10.8809C18.5054 11.2 18.4157 11.5208 18.3259 11.8416L18.1747 12.3702L18.0566 12.8074C18.0151 12.9537 17.9818 13.1016 17.9353 13.2462L17.7774 13.6701L17.6195 14.0973C17.5646 14.2385 17.4948 14.3715 17.4333 14.5112C16.928 15.6132 16.2598 16.6405 15.4586 17.548C14.6557 18.454 13.7432 19.2568 12.7658 19.9284C11.79 20.6049 10.7578 21.1485 9.74382 21.6056C8.72654 22.0594 7.72254 22.4118 6.77671 22.6877C4.88344 23.2446 3.2345 23.5006 2.08097 23.6501C0.922372 23.7947 0.257478 23.8047 0.257478 23.8047C0.172704 23.8064 0.0995674 23.8695 0.0879292 23.956C0.0762938 24.0507 0.142784 24.1388 0.239193 24.1505H0.242517C0.242517 24.1505 0.92239 24.2369 2.11252 24.2618C2.70758 24.2751 3.43235 24.2685 4.26511 24.217C5.09622 24.1654 6.03707 24.0823 7.05601 23.9111C9.08724 23.5687 11.4777 22.9487 13.8313 21.6688C15.0049 21.0321 16.1684 20.2326 17.2057 19.2352C18.2462 18.2462 19.1688 17.076 19.9001 15.7911C19.9916 15.6298 20.0913 15.4736 20.1761 15.309L20.4204 14.8137C20.585 14.4829 20.7446 14.1488 20.8775 13.808L21.087 13.2977L21.1385 13.1697L21.1651 13.1065L21.1717 13.0899C21.1933 13.0251 21.1485 13.1597 21.1551 13.1414L21.1667 13.1132L21.2648 12.8821C21.3978 12.5763 21.5291 12.2704 21.6604 11.9663C21.7918 11.6621 21.9231 11.3595 22.0544 11.057C22.2023 10.8044 22.3386 10.5517 22.4733 10.3007C22.6079 10.0497 22.7442 9.80205 22.8656 9.54941C23.0035 9.30174 23.1681 9.06239 23.3127 8.81971C23.4573 8.57536 23.6019 8.33435 23.7366 8.09001C23.8862 7.8573 24.0507 7.6412 24.2003 7.41682C24.3566 7.19574 24.4962 6.96635 24.6475 6.74861C24.812 6.54415 24.9733 6.34136 25.1328 6.14188C25.2126 6.04049 25.2907 5.94075 25.3705 5.84102C25.447 5.73796 25.5251 5.63823 25.6132 5.55345C25.7844 5.37227 25.9523 5.19441 26.1185 5.01822C26.1967 4.93178 26.2781 4.84202 26.3579 4.75392L26.3578 4.75399Z" fill="#4AF6CD"/>
</svg>
